# xmcd CD database file
#
# Track frame offsets:
#	300
#	24869
#	48054
#	82449
#	116593
#	145645
#	168657
#	191676
#	215068
#	244568
#	262911
#
# Disc length: 3737 seconds
#
# Revision: 1
# Processed by: cddbd v1.4PL0 Copyright (c) Steve Scherf et al.
# Submitted via: CDex 1.50
#
DISCID=960e950b
DTITLE=Rahat - Rahat
DYEAR=1900
DGENRE=New Age
TTITLE0=Nebo
TTITLE1=Future
TTITLE2=Deeper
TTITLE3=AK Buran
TTITLE4=Catoub
TTITLE5=Sunny sweet
TTITLE6=Shining
TTITLE7=Nidoknai
TTITLE8=Tundra
TTITLE9=Outri
TTITLE10=?
EXTD=
EXTT0=
EXTT1=
EXTT2=
EXTT3=
EXTT4=
EXTT5=
EXTT6=
EXTT7=
EXTT8=
EXTT9=
EXTT10=
PLAYORDER=
